# xmcd CD database file
#
# Track frame offsets:
#	150
#	21669
#	42726
#	60936
#	82875
#	108432
#	135162
#	155856
#	176096
#	192938
#
# Disc length: 2941 seconds
#
# Revision: 0
# Processed by: cddbd v1.5.2PL0 Copyright (c) Steve Scherf et al.
# Submitted via: CDex 1.51
#
DISCID=840b7b0a
DTITLE=Sandy and Papo - El Nro. 1
DYEAR=1900
DGENRE=Merengue
TTITLE0=Sandy and Papo - La Movida
TTITLE1=Sandy and Papo - La Fiesta
TTITLE2=Sandy and Papo - El Alacrán
TTITLE3=Sandy and Papo - Vamo' A Bailar
TTITLE4=Sandy and Papo - La Rumba
TTITLE5=Sandy and Papo - Madre
TTITLE6=Sandy and Papo - Ropo Pom-Pom
TTITLE7=Sandy and Papo - Huelepega
TTITLE8=Sandy and Papo - m&r
TTITLE9=Sandy and Papo - El Alacrán (Club Mix)
EXTD=
EXTT0=
EXTT1=
EXTT2=
EXTT3=
EXTT4=
EXTT5=
EXTT6=
EXTT7=
EXTT8=
EXTT9=
PLAYORDER=
